<svg width="37" height="36" viewBox="0 0 37 36" fill="none" xmlns="http://www.w3.org/2000/svg">
<path d="M27.092 11.285C27.0483 11.1963 27.0256 11.0988 27.0256 11C27.0256 10.9012 27.0483 10.8037 27.092 10.715L27.913 9.03599C28.1327 8.58939 28.1695 8.07464 28.0154 7.60134C27.8613 7.12804 27.5285 6.7336 27.088 6.50199L25.441 5.62499C25.3535 5.57894 25.2779 5.51343 25.2198 5.4335C25.1617 5.35357 25.1228 5.26136 25.106 5.16399L24.783 3.32399C24.6987 2.83313 24.426 2.39461 24.0231 2.10188C23.6202 1.80916 23.1188 1.68541 22.626 1.75699L20.776 2.01899C20.6782 2.03313 20.5784 2.02461 20.4845 1.9941C20.3905 1.96358 20.3048 1.91188 20.234 1.84299L18.888 0.542993C18.5312 0.195128 18.0527 0.000427246 17.5545 0.000427246C17.0562 0.000427246 16.5777 0.195128 16.221 0.542993L14.878 1.84299C14.8071 1.91188 14.7214 1.96358 14.6275 1.9941C14.5335 2.02461 14.4337 2.03313 14.336 2.01899L12.486 1.75699C11.9931 1.68541 11.4918 1.80916 11.0888 2.10188C10.6859 2.39461 10.4132 2.83313 10.329 3.32399L10.006 5.16399C9.98916 5.26136 9.95022 5.35357 9.89214 5.4335C9.83405 5.51343 9.75838 5.57894 9.67096 5.62499L8.02096 6.50199C7.58004 6.73378 7.24711 7.12865 7.09318 7.6024C6.93925 8.07616 6.97649 8.5913 7.19696 9.03799L8.01696 10.717C8.06063 10.8057 8.08334 10.9032 8.08334 11.002C8.08334 11.1008 8.06063 11.1983 8.01696 11.287L7.19596 12.966C6.97556 13.4128 6.93847 13.928 7.0926 14.4018C7.24672 14.8756 7.57986 15.2704 8.02096 15.502L9.67096 16.378C9.75838 16.424 9.83405 16.4896 9.89214 16.5695C9.95022 16.6494 9.98916 16.7416 10.006 16.839L10.329 18.679C10.405 19.1232 10.6357 19.5263 10.9804 19.8167C11.325 20.1072 11.7613 20.2663 12.212 20.266C12.304 20.2661 12.3959 20.2598 12.487 20.247L14.337 19.985C14.4347 19.9709 14.5345 19.9794 14.6285 20.0099C14.7224 20.0404 14.8081 20.0921 14.879 20.161L16.222 21.461C16.5787 21.8089 17.0572 22.0036 17.5555 22.0036C18.0537 22.0036 18.5322 21.8089 18.889 21.461L20.232 20.161C20.3028 20.0921 20.3885 20.0404 20.4825 20.0099C20.5764 19.9794 20.6762 19.9709 20.774 19.985L22.624 20.247C23.1168 20.3186 23.6182 20.1948 24.0211 19.9021C24.424 19.6094 24.6967 19.1709 24.781 18.68L25.104 16.84C25.1208 16.7426 25.1597 16.6504 25.2178 16.5705C25.2759 16.4906 25.3515 16.425 25.439 16.379L27.089 15.503C27.5299 15.2712 27.8628 14.8763 28.0167 14.4026C28.1707 13.9288 28.1334 13.4137 27.913 12.967L27.092 11.285ZM26.492 14.379L24.842 15.255C24.5835 15.3911 24.3599 15.5849 24.1882 15.8212C24.0166 16.0575 23.9015 16.3301 23.852 16.618L23.529 18.458C23.5005 18.6241 23.4082 18.7725 23.2718 18.8715C23.1354 18.9705 22.9657 19.0123 22.799 18.988L20.949 18.726C20.6602 18.684 20.3657 18.7091 20.0883 18.7993C19.8108 18.8894 19.5578 19.0423 19.349 19.246L18.006 20.546C17.8854 20.663 17.724 20.7285 17.556 20.7285C17.3879 20.7285 17.2265 20.663 17.106 20.546L15.763 19.246C15.4075 18.8992 14.9305 18.7054 14.434 18.706C14.3426 18.7059 14.2514 18.7123 14.161 18.725L12.311 18.987C12.1442 19.0113 11.9745 18.9695 11.8381 18.8705C11.7017 18.7715 11.6095 18.6231 11.581 18.457L11.258 16.617C11.2085 16.3291 11.0935 16.0565 10.9218 15.8201C10.7501 15.5838 10.5264 15.3901 10.268 15.254L8.61796 14.378C8.46871 14.2997 8.35599 14.1661 8.30386 14.0058C8.25174 13.8455 8.26433 13.6711 8.33896 13.52L9.15996 11.841C9.28902 11.5791 9.35614 11.291 9.35614 10.999C9.35614 10.707 9.28902 10.4189 9.15996 10.157L8.34096 8.47899C8.26633 8.32785 8.25374 8.15352 8.30586 7.99322C8.35799 7.83291 8.47071 7.69934 8.61996 7.62099L10.27 6.74499C10.5284 6.60885 10.7521 6.41513 10.9237 6.1788C11.0954 5.94247 11.2104 5.66985 11.26 5.38199L11.583 3.54199C11.6115 3.37588 11.7037 3.22748 11.8401 3.12847C11.9765 3.02945 12.1462 2.98765 12.313 3.01199L14.163 3.27399C14.4517 3.3156 14.7461 3.29034 15.0235 3.20019C15.3009 3.11003 15.5539 2.95738 15.763 2.75399L17.106 1.45399C17.2265 1.33694 17.3879 1.27147 17.556 1.27147C17.724 1.27147 17.8854 1.33694 18.006 1.45399L19.349 2.75399C19.558 2.95738 19.811 3.11003 20.0884 3.20019C20.3659 3.29034 20.6603 3.3156 20.949 3.27399L22.799 3.01199C22.9657 2.98765 23.1354 3.02945 23.2718 3.12847C23.4082 3.22748 23.5005 3.37588 23.529 3.54199L23.852 5.38199C23.9014 5.66988 24.0165 5.94253 24.1881 6.17887C24.3598 6.41521 24.5835 6.60891 24.842 6.74499L26.492 7.62099C26.6412 7.69934 26.7539 7.83291 26.8061 7.99322C26.8582 8.15352 26.8456 8.32785 26.771 8.47899L25.95 10.158C25.821 10.4199 25.7539 10.708 25.7539 11C25.7539 11.292 25.821 11.58 25.95 11.842L26.771 13.521C26.8457 13.6719 26.8586 13.846 26.8069 14.0063C26.7552 14.1666 26.6429 14.3003 26.494 14.379H26.492Z" fill="#5C5C5C"/>
<path d="M22.191 6.36501C22.132 6.30562 22.0619 6.2585 21.9847 6.22633C21.9075 6.19417 21.8246 6.17761 21.741 6.17761C21.6573 6.17761 21.5745 6.19417 21.4973 6.22633C21.42 6.2585 21.3499 6.30562 21.291 6.36501L12.917 14.739C12.8579 14.7981 12.811 14.8683 12.779 14.9455C12.7471 15.0227 12.7306 15.1054 12.7306 15.189C12.7306 15.2726 12.7471 15.3553 12.779 15.4325C12.811 15.5098 12.8579 15.5799 12.917 15.639C12.9761 15.6981 13.0462 15.745 13.1234 15.7769C13.2007 15.8089 13.2834 15.8254 13.367 15.8254C13.4506 15.8254 13.5333 15.8089 13.6105 15.7769C13.6877 15.745 13.7579 15.6981 13.817 15.639L22.191 7.265C22.2504 7.20607 22.2975 7.13596 22.3297 7.05873C22.3618 6.9815 22.3784 6.89866 22.3784 6.815C22.3784 6.73134 22.3618 6.64851 22.3297 6.57127C22.2975 6.49404 22.2504 6.42394 22.191 6.36501Z" fill="#5C5C5C"/>
<path d="M15.0169 5.28998C14.5569 5.28998 14.1072 5.4264 13.7247 5.68198C13.3421 5.93757 13.044 6.30084 12.868 6.72586C12.6919 7.15088 12.6459 7.61856 12.7356 8.06976C12.8254 8.52096 13.0469 8.93541 13.3722 9.26071C13.6975 9.58601 14.1119 9.80754 14.5631 9.89729C15.0143 9.98703 15.482 9.94097 15.907 9.76492C16.3321 9.58887 16.6953 9.29074 16.9509 8.90823C17.2065 8.52572 17.3429 8.07602 17.3429 7.61598C17.3421 6.99933 17.0968 6.40817 16.6608 5.97213C16.2247 5.53609 15.6336 5.29077 15.0169 5.28998ZM15.0169 8.67398C14.8079 8.67398 14.6035 8.61199 14.4297 8.49584C14.2559 8.3797 14.1204 8.21462 14.0404 8.02148C13.9604 7.82834 13.9394 7.6158 13.9802 7.41077C14.021 7.20573 14.1217 7.01739 14.2695 6.86957C14.4173 6.72174 14.6057 6.62108 14.8107 6.58029C15.0157 6.53951 15.2283 6.56044 15.4214 6.64044C15.6146 6.72044 15.7796 6.85592 15.8958 7.02974C16.0119 7.20356 16.0739 7.40793 16.0739 7.61698C16.0734 7.89715 15.9619 8.1657 15.7638 8.36381C15.5656 8.56192 15.2971 8.67345 15.0169 8.67398Z" fill="#5C5C5C"/>
<path d="M20.092 12.058C19.6319 12.058 19.1822 12.1944 18.7997 12.45C18.4172 12.7056 18.1191 13.0688 17.943 13.4939C17.767 13.9189 17.7209 14.3866 17.8107 14.8378C17.9004 15.289 18.122 15.7034 18.4473 16.0287C18.7726 16.354 19.187 16.5756 19.6382 16.6653C20.0894 16.7551 20.5571 16.709 20.9821 16.5329C21.4071 16.3569 21.7704 16.0588 22.026 15.6763C22.2816 15.2938 22.418 14.844 22.418 14.384C22.4172 13.7674 22.1719 13.1762 21.7358 12.7401C21.2998 12.3041 20.7086 12.0588 20.092 12.058ZM20.092 15.442C19.8829 15.442 19.6786 15.38 19.5047 15.2639C19.3309 15.1477 19.1954 14.9826 19.1154 14.7895C19.0354 14.5963 19.0145 14.3838 19.0553 14.1788C19.0961 13.9738 19.1967 13.7854 19.3446 13.6376C19.4924 13.4897 19.6807 13.3891 19.8858 13.3483C20.0908 13.3075 20.3033 13.3284 20.4965 13.4084C20.6896 13.4884 20.8547 13.6239 20.9708 13.7978C21.087 13.9716 21.149 14.176 21.149 14.385C21.1484 14.6652 21.0369 14.9337 20.8388 15.1318C20.6407 15.3299 20.3721 15.4415 20.092 15.442Z" fill="#5C5C5C"/>
<path d="M3.04 26.57C3.68667 26.57 4.18333 26.7367 4.53 27.07C4.88333 27.3967 5.06 27.87 5.06 28.49C5.06 29.21 4.83667 29.78 4.39 30.2C3.95 30.62 3.34333 30.83 2.57 30.83H1.86V30.98L1.91 33H0.86L0.93 31.07L0.86 26.58L3.04 26.57ZM2.87 30.03C3.23667 29.9567 3.51333 29.8 3.7 29.56C3.89333 29.3133 3.99 28.9867 3.99 28.58C3.99 28.18 3.88667 27.8833 3.68 27.69C3.48 27.4967 3.17333 27.3933 2.76 27.38L1.91 27.41L1.87 30.01L2.87 30.03ZM7.45789 28.3C7.91789 28.3 8.28122 28.41 8.54789 28.63C8.81456 28.85 8.94789 29.1567 8.94789 29.55C8.94789 29.67 8.92789 30.07 8.88789 30.75C8.84789 31.4167 8.82789 31.8067 8.82789 31.92C8.82789 32.0467 8.84789 32.1367 8.88789 32.19C8.93456 32.2367 9.01122 32.26 9.11789 32.26C9.18456 32.26 9.28456 32.2467 9.41789 32.22L9.50789 32.29L9.40789 32.85C9.21456 32.97 9.00456 33.0433 8.77789 33.07C8.57122 33.05 8.40456 32.9767 8.27789 32.85C8.15122 32.7167 8.07456 32.5433 8.04789 32.33H7.97789C7.63789 32.69 7.29122 32.94 6.93789 33.08C6.47789 33.0733 6.11456 32.9533 5.84789 32.72C5.58789 32.4867 5.45789 32.17 5.45789 31.77C5.45789 31.1767 5.78122 30.8067 6.42789 30.66L8.00789 30.31L8.01789 29.77C8.01789 29.5233 7.95456 29.3367 7.82789 29.21C7.70789 29.0833 7.53122 29.02 7.29789 29.02C7.07122 29.02 6.84456 29.0733 6.61789 29.18C6.39122 29.28 6.14122 29.44 5.86789 29.66L5.78789 29.61L5.65789 28.9C6.24456 28.5 6.84456 28.3 7.45789 28.3ZM6.70789 31.21C6.58789 31.2367 6.50122 31.2833 6.44789 31.35C6.39456 31.41 6.36789 31.5067 6.36789 31.64C6.36789 31.84 6.42122 31.9967 6.52789 32.11C6.64122 32.2233 6.79122 32.28 6.97789 32.28C7.29122 32.28 7.62456 32.0767 7.97789 31.67L8.00789 30.9L6.70789 31.21ZM12.2652 28.3C12.4785 28.3 12.6952 28.3233 12.9152 28.37C13.1352 28.4167 13.3285 28.48 13.4952 28.56L13.3252 29.41L13.2252 29.45C12.8718 29.2433 12.5452 29.14 12.2452 29.14C11.8918 29.14 11.6152 29.2733 11.4152 29.54C11.2152 29.8067 11.1152 30.18 11.1152 30.66C11.1152 31.1733 11.2185 31.5733 11.4252 31.86C11.6318 32.14 11.9252 32.28 12.3052 32.28C12.6385 32.28 12.9952 32.18 13.3752 31.98L13.4652 32.04L13.3652 32.86C12.9585 33.0133 12.5518 33.09 12.1452 33.09C11.5185 33.09 11.0285 32.8833 10.6752 32.47C10.3285 32.05 10.1552 31.4733 10.1552 30.74C10.1552 29.98 10.3418 29.3833 10.7152 28.95C11.0885 28.5167 11.6052 28.3 12.2652 28.3ZM15.3233 30.97L15.3933 33H14.3733L14.4433 31.06L14.3833 26.06L15.4033 25.98L15.3233 30.97ZM16.4633 30.49C16.9366 31.1633 17.5333 31.94 18.2533 32.82V32.94C18.0799 32.9867 17.8933 33.02 17.6933 33.04C17.4933 33.0667 17.3699 33.0833 17.3233 33.09L17.2133 33.05C16.5266 32.1833 15.9466 31.36 15.4733 30.58V30.51L16.7833 28.83L17.0333 28.39H18.1433L16.4633 30.49ZM20.5243 28.3C20.9843 28.3 21.3476 28.41 21.6143 28.63C21.881 28.85 22.0143 29.1567 22.0143 29.55C22.0143 29.67 21.9943 30.07 21.9543 30.75C21.9143 31.4167 21.8943 31.8067 21.8943 31.92C21.8943 32.0467 21.9143 32.1367 21.9543 32.19C22.001 32.2367 22.0776 32.26 22.1843 32.26C22.251 32.26 22.351 32.2467 22.4843 32.22L22.5743 32.29L22.4743 32.85C22.281 32.97 22.071 33.0433 21.8443 33.07C21.6376 33.05 21.471 32.9767 21.3443 32.85C21.2176 32.7167 21.141 32.5433 21.1143 32.33H21.0443C20.7043 32.69 20.3576 32.94 20.0043 33.08C19.5443 33.0733 19.181 32.9533 18.9143 32.72C18.6543 32.4867 18.5243 32.17 18.5243 31.77C18.5243 31.1767 18.8476 30.8067 19.4943 30.66L21.0743 30.31L21.0843 29.77C21.0843 29.5233 21.021 29.3367 20.8943 29.21C20.7743 29.0833 20.5976 29.02 20.3643 29.02C20.1376 29.02 19.911 29.0733 19.6843 29.18C19.4576 29.28 19.2076 29.44 18.9343 29.66L18.8543 29.61L18.7243 28.9C19.311 28.5 19.911 28.3 20.5243 28.3ZM19.7743 31.21C19.6543 31.2367 19.5676 31.2833 19.5143 31.35C19.461 31.41 19.4343 31.5067 19.4343 31.64C19.4343 31.84 19.4876 31.9967 19.5943 32.11C19.7076 32.2233 19.8576 32.28 20.0443 32.28C20.3576 32.28 20.691 32.0767 21.0443 31.67L21.0743 30.9L19.7743 31.21ZM27.8016 28.88C27.6149 28.94 27.3282 29.0033 26.9416 29.07L26.9216 29.11C27.0482 29.3233 27.1116 29.58 27.1116 29.88C27.1116 30.3733 26.9416 30.7667 26.6016 31.06C26.2616 31.3467 25.8016 31.49 25.2216 31.49C25.0082 31.49 24.8049 31.47 24.6116 31.43C24.5316 31.4967 24.4749 31.5567 24.4416 31.61C24.4149 31.6567 24.4016 31.7067 24.4016 31.76C24.4016 31.8933 24.4849 31.9867 24.6516 32.04C24.8249 32.0933 25.0949 32.1467 25.4616 32.2C25.8416 32.2467 26.1582 32.3033 26.4116 32.37C26.6649 32.4367 26.8816 32.55 27.0616 32.71C27.2482 32.87 27.3416 33.09 27.3416 33.37C27.3416 33.6633 27.2449 33.93 27.0516 34.17C26.8582 34.41 26.5916 34.5967 26.2516 34.73C25.9182 34.87 25.5449 34.94 25.1316 34.94C24.5716 34.94 24.1349 34.8167 23.8216 34.57C23.5149 34.3233 23.3616 34 23.3616 33.6C23.4616 33.44 23.5816 33.2967 23.7216 33.17C23.8616 33.0433 24.0282 32.9167 24.2216 32.79V32.74C23.9882 32.66 23.8082 32.5567 23.6816 32.43C23.5549 32.2967 23.4916 32.12 23.4916 31.9C23.6649 31.6533 23.8782 31.45 24.1316 31.29V31.24C23.9049 31.1133 23.7316 30.9433 23.6116 30.73C23.4982 30.51 23.4416 30.2533 23.4416 29.96C23.4416 29.4533 23.6082 29.0567 23.9416 28.77C24.2816 28.4767 24.7382 28.33 25.3116 28.33C25.6582 28.33 25.9649 28.3867 26.2316 28.5C26.7249 28.42 27.2182 28.3033 27.7116 28.15L27.8016 28.21V28.88ZM25.2616 30.84C25.5682 30.84 25.8016 30.7567 25.9616 30.59C26.1282 30.4233 26.2116 30.1867 26.2116 29.88C26.2116 29.5933 26.1349 29.3733 25.9816 29.22C25.8282 29.0667 25.6016 28.99 25.3016 28.99C24.9882 28.99 24.7482 29.07 24.5816 29.23C24.4216 29.3833 24.3416 29.61 24.3416 29.91C24.3416 30.21 24.4182 30.44 24.5716 30.6C24.7316 30.76 24.9616 30.84 25.2616 30.84ZM26.4616 33.56C26.4616 33.4133 26.4049 33.3 26.2916 33.22C26.1782 33.14 26.0416 33.08 25.8816 33.04C25.7216 33.0067 25.4882 32.9667 25.1816 32.92C25.0349 32.9067 24.9316 32.8933 24.8716 32.88C24.6582 33.0133 24.4982 33.1433 24.3916 33.27C24.2849 33.3967 24.2316 33.5267 24.2316 33.66C24.2316 33.84 24.3182 33.9867 24.4916 34.1C24.6716 34.22 24.9249 34.28 25.2516 34.28C25.6049 34.28 25.8949 34.2133 26.1216 34.08C26.3482 33.9467 26.4616 33.7733 26.4616 33.56ZM31.8639 30.74L29.0539 30.75C29.0606 31.2567 29.1839 31.6433 29.4239 31.91C29.6639 32.17 30.0039 32.3 30.4439 32.3C30.9039 32.3 31.3539 32.1633 31.7939 31.89L31.8939 31.95L31.7439 32.77C31.2572 32.9833 30.7839 33.09 30.3239 33.09C29.6372 33.09 29.0972 32.88 28.7039 32.46C28.3172 32.0333 28.1239 31.4533 28.1239 30.72C28.1239 29.98 28.3172 29.3933 28.7039 28.96C29.0906 28.5267 29.6139 28.31 30.2739 28.31C30.8339 28.31 31.2639 28.4633 31.5639 28.77C31.8706 29.0767 32.0239 29.51 32.0239 30.07C32.0239 30.2233 32.0072 30.4067 31.9739 30.62L31.8639 30.74ZM31.1039 29.95C31.1039 29.6367 31.0306 29.4 30.8839 29.24C30.7439 29.08 30.5372 29 30.2639 29C29.9572 29 29.7039 29.1 29.5039 29.3C29.3039 29.4933 29.1706 29.77 29.1039 30.13L31.0839 30.09L31.1039 29.95ZM34.5023 28.31C34.9023 28.31 35.2923 28.3867 35.6723 28.54L35.5323 29.34L35.4023 29.37C35.0557 29.1367 34.7157 29.02 34.3823 29.02C34.1823 29.02 34.0223 29.0733 33.9023 29.18C33.789 29.2867 33.7323 29.4167 33.7323 29.57C33.7323 29.7367 33.799 29.87 33.9323 29.97C34.0723 30.07 34.2857 30.18 34.5723 30.3C34.8323 30.4133 35.0423 30.52 35.2023 30.62C35.369 30.72 35.509 30.8533 35.6223 31.02C35.7423 31.1867 35.8023 31.3933 35.8023 31.64C35.8023 31.8933 35.7357 32.1333 35.6023 32.36C35.469 32.58 35.2723 32.7567 35.0123 32.89C34.7523 33.0233 34.439 33.09 34.0723 33.09C33.6123 33.09 33.1457 32.9867 32.6723 32.78L32.7923 31.93L32.9023 31.86C33.0957 32.0267 33.309 32.16 33.5423 32.26C33.7757 32.3533 33.989 32.4 34.1823 32.4C34.3957 32.4 34.5657 32.3433 34.6923 32.23C34.8257 32.11 34.8923 31.97 34.8923 31.81C34.8923 31.6433 34.8257 31.5133 34.6923 31.42C34.559 31.32 34.349 31.2033 34.0623 31.07C33.8023 30.9567 33.589 30.85 33.4223 30.75C33.2557 30.65 33.1123 30.5133 32.9923 30.34C32.879 30.1667 32.8223 29.9533 32.8223 29.7C32.8223 29.2933 32.9723 28.96 33.2723 28.7C33.5723 28.44 33.9823 28.31 34.5023 28.31Z" fill="#5C5C5C"/>
</svg>
