<svg width="25" height="35" viewBox="0 0 25 35" fill="none" xmlns="http://www.w3.org/2000/svg">
<path d="M22.4071 9.56895L13.4311 0.59395C13.243 0.405879 13.0198 0.256691 12.7741 0.154906C12.5284 0.0531208 12.265 0.000732422 11.9991 0.000732422C11.7331 0.000732422 11.4698 0.0531208 11.2241 0.154906C10.9783 0.256691 10.7551 0.405879 10.5671 0.59395L1.60006 9.56295L1.59106 9.57195C1.31381 9.85012 1.12348 10.2029 1.04327 10.5874C0.963062 10.9719 0.996439 11.3714 1.13933 11.7372C1.28223 12.103 1.52846 12.4193 1.84803 12.6476C2.16759 12.8759 2.54667 13.0063 2.93906 13.023C2.96006 13.023 2.98106 13.023 3.00206 13.023H3.36006V19.6229C3.35873 20.252 3.60719 20.8558 4.05085 21.3017C4.4945 21.7476 5.09704 21.9991 5.72606 22.0009H9.23706C9.40812 22.0009 9.57218 21.933 9.69314 21.812C9.8141 21.6911 9.88206 21.527 9.88206 21.3559V16.1779C9.88364 15.8921 9.99816 15.6185 10.2007 15.4167C10.4032 15.215 10.6772 15.1015 10.9631 15.101H13.0341C13.3206 15.1015 13.5952 15.2155 13.7979 15.4182C14.0005 15.6208 14.1145 15.8954 14.1151 16.1819V21.3599C14.1161 21.5303 14.1845 21.6934 14.3054 21.8134C14.4262 21.9335 14.5897 22.001 14.7601 22.0009H18.2711C18.8994 22.0002 19.5017 21.7502 19.946 21.3059C20.3903 20.8616 20.6403 20.2593 20.6411 19.6309V13.0309H20.9731C21.3735 13.0307 21.7648 12.9118 22.0977 12.6893C22.4306 12.4668 22.6901 12.1506 22.8434 11.7808C22.9968 11.4109 23.0371 11.0038 22.9592 10.6111C22.8814 10.2183 22.6889 9.8574 22.4061 9.57395L22.4071 9.56895ZM21.4941 11.521C21.4258 11.5896 21.3446 11.6441 21.2552 11.6811C21.1658 11.7182 21.0699 11.7372 20.9731 11.7369H20.0001C19.9153 11.7368 19.8314 11.7534 19.7531 11.7858C19.6748 11.8181 19.6036 11.8657 19.5437 11.9256C19.4838 11.9855 19.4363 12.0566 19.4039 12.135C19.3715 12.2133 19.3549 12.2972 19.3551 12.3819V19.6309C19.3545 19.9175 19.2405 20.1921 19.0379 20.3947C18.8352 20.5974 18.5606 20.7114 18.2741 20.712H15.4001V16.1779C15.3993 15.5496 15.1493 14.9473 14.705 14.503C14.2607 14.0587 13.6584 13.8087 13.0301 13.808H10.9631C10.3346 13.8085 9.73195 14.0583 9.28744 14.5026C8.84294 14.9469 8.59285 15.5495 8.59206 16.1779V20.7109H5.72606C5.43952 20.7104 5.16487 20.5964 4.96226 20.3937C4.75964 20.1911 4.64558 19.9165 4.64506 19.6299V12.3809C4.64519 12.2962 4.62859 12.2123 4.59623 12.134C4.56386 12.0556 4.51635 11.9845 4.45643 11.9246C4.39651 11.8647 4.32536 11.8171 4.24704 11.7848C4.16873 11.7524 4.0848 11.7358 4.00006 11.7359H3.01006C2.86504 11.7345 2.72371 11.6902 2.60383 11.6086C2.48395 11.5269 2.3909 11.4117 2.33638 11.2773C2.28186 11.1429 2.26831 10.9954 2.29743 10.8534C2.32656 10.7113 2.39706 10.581 2.50006 10.4789L11.4781 1.50095C11.5464 1.43259 11.6275 1.37835 11.7169 1.34135C11.8062 1.30435 11.9019 1.28531 11.9986 1.28531C12.0952 1.28531 12.1909 1.30435 12.2803 1.34135C12.3696 1.37835 12.4507 1.43259 12.5191 1.50095L21.4911 10.4729C21.6283 10.6112 21.7054 10.7981 21.7054 10.9929C21.7054 11.1878 21.6283 11.3747 21.4911 11.5129L21.4941 11.521Z" fill="#E36DA6"/>
<path d="M5.98 29.9799L6.01 31.9999H4.98L5.03 30.0699L5.02 29.1999L3.38 29.1899L1.88 29.1999L1.87 29.9799L1.91 31.9999H0.89L0.93 30.0699L0.89 25.5799H1.92L1.89 28.3399L3.46 28.3599L5.01 28.3399L4.98 25.5799H6.03L5.98 29.9799ZM9.21922 27.2999C9.86589 27.2999 10.3626 27.5033 10.7092 27.9099C11.0626 28.3099 11.2392 28.8799 11.2392 29.6199C11.2392 30.4133 11.0526 31.0233 10.6792 31.4499C10.3059 31.8766 9.77589 32.0899 9.08922 32.0899C8.44255 32.0899 7.94255 31.8899 7.58922 31.4899C7.24255 31.0833 7.06922 30.5099 7.06922 29.7699C7.06922 28.9766 7.25589 28.3666 7.62922 27.9399C8.00255 27.5133 8.53255 27.2999 9.21922 27.2999ZM9.15922 28.0099C8.39922 28.0099 8.01922 28.5233 8.01922 29.5499C8.01922 30.1766 8.11255 30.6399 8.29922 30.9399C8.48589 31.2399 8.77255 31.3899 9.15922 31.3899C9.53922 31.3899 9.82255 31.2633 10.0092 31.0099C10.1959 30.7566 10.2892 30.3699 10.2892 29.8499C10.2892 29.2233 10.1959 28.7599 10.0092 28.4599C9.82255 28.1599 9.53922 28.0099 9.15922 28.0099ZM17.963 28.9699C17.9696 28.7166 17.9096 28.5199 17.783 28.3799C17.663 28.2333 17.4863 28.1599 17.253 28.1599C16.873 28.1599 16.4796 28.3533 16.073 28.7399L16.053 29.9799L16.103 31.9999H15.073L15.143 28.9699C15.1496 28.7166 15.0896 28.5199 14.963 28.3799C14.843 28.2333 14.6663 28.1599 14.433 28.1599C14.0463 28.1599 13.6463 28.3599 13.233 28.7599L13.223 29.9799L13.283 31.9999H12.263L12.323 30.0699L12.273 27.4599L13.243 27.3699L13.233 28.0399H13.303C13.6963 27.6933 14.1063 27.4566 14.533 27.3299C14.9063 27.3299 15.213 27.3966 15.453 27.5299C15.6996 27.6566 15.873 27.8399 15.973 28.0799H16.033C16.4396 27.7266 16.8796 27.4766 17.353 27.3299C17.8663 27.3299 18.253 27.4466 18.513 27.6799C18.7796 27.9133 18.9096 28.2466 18.903 28.6799L18.873 29.9799L18.923 31.9999H17.903L17.963 28.9699ZM23.6803 29.7399L20.8703 29.7499C20.877 30.2566 21.0003 30.6433 21.2403 30.9099C21.4803 31.1699 21.8203 31.2999 22.2603 31.2999C22.7203 31.2999 23.1703 31.1633 23.6103 30.8899L23.7103 30.9499L23.5603 31.7699C23.0736 31.9833 22.6003 32.0899 22.1403 32.0899C21.4536 32.0899 20.9136 31.8799 20.5203 31.4599C20.1336 31.0333 19.9403 30.4533 19.9403 29.7199C19.9403 28.9799 20.1336 28.3933 20.5203 27.9599C20.907 27.5266 21.4303 27.3099 22.0903 27.3099C22.6503 27.3099 23.0803 27.4633 23.3803 27.7699C23.687 28.0766 23.8403 28.5099 23.8403 29.0699C23.8403 29.2233 23.8236 29.4066 23.7903 29.6199L23.6803 29.7399ZM22.9203 28.9499C22.9203 28.6366 22.847 28.3999 22.7003 28.2399C22.5603 28.0799 22.3536 27.9999 22.0803 27.9999C21.7736 27.9999 21.5203 28.0999 21.3203 28.2999C21.1203 28.4933 20.987 28.7699 20.9203 29.1299L22.9003 29.0899L22.9203 28.9499Z" fill="#E36DA6"/>
</svg>
