<svg width="27" height="36" viewBox="0 0 27 36" fill="none" xmlns="http://www.w3.org/2000/svg">
<path d="M20.778 14.222C19.6027 13.0418 18.1738 12.1451 16.6 11.6C17.7188 10.8316 18.5625 9.72534 19.0075 8.44307C19.4525 7.1608 19.4756 5.76978 19.0733 4.47347C18.671 3.17715 17.8645 2.04356 16.7718 1.2385C15.679 0.433437 14.3573 -0.000854492 13 -0.000854492C11.6427 -0.000854492 10.321 0.433437 9.22825 1.2385C8.13549 2.04356 7.32898 3.17715 6.92671 4.47347C6.52443 5.76978 6.54749 7.1608 6.99251 8.44307C7.43753 9.72534 8.28115 10.8316 9.4 11.6C7.23959 12.3509 5.36645 13.7556 4.04045 15.6191C2.71444 17.4827 2.00131 19.7128 2 22H3.719C3.719 19.5384 4.69687 17.1776 6.43749 15.437C8.17811 13.6964 10.5389 12.7185 13.0005 12.7185C15.4621 12.7185 17.8229 13.6964 19.5635 15.437C21.3041 17.1776 22.282 19.5384 22.282 22H24C24.0039 20.5549 23.7211 19.1233 23.1681 17.7883C22.615 16.4532 21.8027 15.241 20.778 14.222ZM13 11C12.0821 11 11.1848 10.7278 10.4216 10.2178C9.65839 9.70788 9.06354 8.98305 8.71228 8.13502C8.36101 7.28699 8.2691 6.35384 8.44818 5.45357C8.62725 4.5533 9.06926 3.72636 9.71832 3.0773C10.3674 2.42825 11.1943 1.98623 12.0946 1.80716C12.9949 1.62809 13.928 1.71999 14.776 2.07126C15.6241 2.42253 16.3489 3.01737 16.8589 3.78058C17.3688 4.54379 17.641 5.44108 17.641 6.35898C17.6397 7.58945 17.1503 8.76914 16.2802 9.63921C15.4102 10.5093 14.2305 10.9987 13 11Z" fill="#5C5C5C"/>
<path d="M3.04 26.57C3.68667 26.57 4.18333 26.7367 4.53 27.07C4.88333 27.3967 5.06 27.87 5.06 28.49C5.06 29.21 4.83667 29.78 4.39 30.2C3.95 30.62 3.34333 30.83 2.57 30.83H1.86V30.98L1.91 33H0.86L0.93 31.07L0.86 26.58L3.04 26.57ZM2.87 30.03C3.23667 29.9567 3.51333 29.8 3.7 29.56C3.89333 29.3133 3.99 28.9867 3.99 28.58C3.99 28.18 3.88667 27.8833 3.68 27.69C3.48 27.4967 3.17333 27.3933 2.76 27.38L1.91 27.41L1.87 30.01L2.87 30.03ZM8.25438 28.38C8.32771 28.38 8.41104 28.3867 8.50438 28.4V29.37L8.39438 29.4C8.28771 29.3667 8.16438 29.35 8.02438 29.35C7.81771 29.35 7.62438 29.4267 7.44438 29.58C7.26438 29.7333 7.09104 29.98 6.92438 30.32L6.91438 30.98L6.97438 33H5.95438L6.02438 31.07L5.96438 28.46L6.93438 28.37L6.92438 29.29H6.99438C7.17438 28.97 7.37438 28.74 7.59438 28.6C7.81438 28.4533 8.03438 28.38 8.25438 28.38ZM11.0942 28.3C11.7409 28.3 12.2376 28.5033 12.5842 28.91C12.9376 29.31 13.1142 29.88 13.1142 30.62C13.1142 31.4133 12.9276 32.0233 12.5542 32.45C12.1809 32.8767 11.6509 33.09 10.9642 33.09C10.3176 33.09 9.81755 32.89 9.46422 32.49C9.11755 32.0833 8.94422 31.51 8.94422 30.77C8.94422 29.9767 9.13089 29.3667 9.50422 28.94C9.87755 28.5133 10.4076 28.3 11.0942 28.3ZM11.0342 29.01C10.2742 29.01 9.89422 29.5233 9.89422 30.55C9.89422 31.1767 9.98755 31.64 10.1742 31.94C10.3609 32.24 10.6476 32.39 11.0342 32.39C11.4142 32.39 11.6976 32.2633 11.8842 32.01C12.0709 31.7567 12.1642 31.37 12.1642 30.85C12.1642 30.2233 12.0709 29.76 11.8842 29.46C11.6976 29.16 11.4142 29.01 11.0342 29.01ZM16.3608 25.96C16.7674 25.96 17.2041 26.0233 17.6708 26.15L17.5508 26.97L17.4408 27.01C17.2008 26.8967 16.9874 26.8167 16.8008 26.77C16.6141 26.7167 16.4308 26.69 16.2508 26.69C15.9308 26.69 15.6941 26.7733 15.5408 26.94C15.3874 27.1 15.3108 27.3533 15.3108 27.7L15.3008 28.41H17.7208L18.2908 28.33L18.3708 28.37L18.3008 30.98L18.3608 33H17.3408L17.4108 31.07L17.3708 29.06H15.2908L15.2608 30.97L15.3308 33H14.3108L14.3708 31.06L14.3508 29.06H13.6608L13.6208 29L13.6708 28.41H14.3508L14.3408 27.9C14.3408 27.2333 14.5041 26.7433 14.8308 26.43C15.1574 26.1167 15.6674 25.96 16.3608 25.96ZM20.753 30.97L20.823 33H19.803L19.873 31.06L19.813 26.06L20.833 25.98L20.753 30.97ZM25.692 30.74L22.882 30.75C22.8887 31.2567 23.012 31.6433 23.252 31.91C23.492 32.17 23.832 32.3 24.272 32.3C24.732 32.3 25.182 32.1633 25.622 31.89L25.722 31.95L25.572 32.77C25.0854 32.9833 24.612 33.09 24.152 33.09C23.4654 33.09 22.9254 32.88 22.532 32.46C22.1454 32.0333 21.952 31.4533 21.952 30.72C21.952 29.98 22.1454 29.3933 22.532 28.96C22.9187 28.5267 23.442 28.31 24.102 28.31C24.662 28.31 25.092 28.4633 25.392 28.77C25.6987 29.0767 25.852 29.51 25.852 30.07C25.852 30.2233 25.8354 30.4067 25.802 30.62L25.692 30.74ZM24.932 29.95C24.932 29.6367 24.8587 29.4 24.712 29.24C24.572 29.08 24.3654 29 24.092 29C23.7854 29 23.532 29.1 23.332 29.3C23.132 29.4933 22.9987 29.77 22.932 30.13L24.912 30.09L24.932 29.95Z" fill="#5C5C5C"/>
</svg>
