<svg width="37" height="36" viewBox="0 0 37 36" fill="none" xmlns="http://www.w3.org/2000/svg">
<path d="M21.92 12.943L18.853 10.643V5.95699C18.8382 5.74164 18.7422 5.53991 18.5844 5.39259C18.4266 5.24527 18.2188 5.16333 18.003 5.16333C17.7871 5.16333 17.5793 5.24527 17.4215 5.39259C17.2637 5.53991 17.1677 5.74164 17.153 5.95699V11.069C17.1528 11.2014 17.1835 11.332 17.2427 11.4504C17.3019 11.5688 17.3879 11.6717 17.494 11.751L20.902 14.307C21.0827 14.4426 21.3099 14.5009 21.5337 14.4691C21.7574 14.4372 21.9593 14.3177 22.095 14.137C22.2306 13.9562 22.2889 13.729 22.257 13.5053C22.2252 13.2815 22.1057 13.0797 21.925 12.944L21.92 12.943Z" fill="#5C5C5C"/>
<path d="M18 0C15.8244 0 13.6977 0.645139 11.8887 1.85383C10.0798 3.06253 8.66989 4.78049 7.83733 6.79048C7.00477 8.80047 6.78693 11.0122 7.21137 13.146C7.6358 15.2798 8.68345 17.2398 10.2218 18.7782C11.7602 20.3166 13.7202 21.3642 15.854 21.7886C17.9878 22.2131 20.1995 21.9952 22.2095 21.1627C24.2195 20.3301 25.9375 18.9202 27.1462 17.1113C28.3549 15.3023 29 13.1756 29 11C28.9968 8.08359 27.8369 5.28755 25.7747 3.22533C23.7125 1.16312 20.9164 0.00317634 18 0V0ZM18 20.3C16.1606 20.3 14.3626 19.7546 12.8332 18.7327C11.3038 17.7108 10.1118 16.2583 9.40793 14.559C8.70403 12.8596 8.51986 10.9897 8.8787 9.18566C9.23754 7.38164 10.1233 5.72453 11.4239 4.42391C12.7245 3.12328 14.3816 2.23754 16.1857 1.8787C17.9897 1.51985 19.8596 1.70403 21.559 2.40792C23.2583 3.11182 24.7108 4.30382 25.7327 5.8332C26.7546 7.36257 27.3 9.16063 27.3 11C27.2982 13.4659 26.3177 15.8304 24.5741 17.574C22.8304 19.3177 20.4659 20.2981 18 20.3Z" fill="#5C5C5C"/>
<path d="M3.86 29.66C4.30667 29.7533 4.63667 29.93 4.85 30.19C5.07 30.4433 5.18 30.78 5.18 31.2C5.18 32.4267 4.26333 33.04 2.43 33.04C1.79667 33.04 1.27667 33.0267 0.87 33H0.86L0.93 31.07L0.86 26.58L2.86 26.57C3.48 26.57 3.96 26.7067 4.3 26.98C4.64667 27.2467 4.82 27.6367 4.82 28.15C4.82 28.51 4.73667 28.82 4.57 29.08C4.40333 29.3333 4.16667 29.5267 3.86 29.66ZM3.76 28.27C3.76 27.95 3.67 27.72 3.49 27.58C3.31 27.44 3.00667 27.37 2.58 27.37H1.9L1.87 29.34L2.9 29.37C3.19333 29.2967 3.41 29.1733 3.55 29C3.69 28.82 3.76 28.5767 3.76 28.27ZM2.6 32.24C3.09333 32.24 3.47333 32.1467 3.74 31.96C4.00667 31.7733 4.14 31.5 4.14 31.14C4.14 30.5667 3.77 30.23 3.03 30.13L1.86 30.14L1.85 30.98L1.88 32.21C2.14 32.23 2.38 32.24 2.6 32.24ZM7.97898 28.3C8.62565 28.3 9.12232 28.5033 9.46898 28.91C9.82232 29.31 9.99898 29.88 9.99898 30.62C9.99898 31.4133 9.81232 32.0233 9.43898 32.45C9.06565 32.8767 8.53565 33.09 7.84898 33.09C7.20232 33.09 6.70232 32.89 6.34898 32.49C6.00232 32.0833 5.82898 31.51 5.82898 30.77C5.82898 29.9767 6.01565 29.3667 6.38898 28.94C6.76232 28.5133 7.29232 28.3 7.97898 28.3ZM7.91898 29.01C7.15898 29.01 6.77898 29.5233 6.77898 30.55C6.77898 31.1767 6.87232 31.64 7.05898 31.94C7.24565 32.24 7.53232 32.39 7.91898 32.39C8.29898 32.39 8.58232 32.2633 8.76898 32.01C8.95565 31.7567 9.04898 31.37 9.04898 30.85C9.04898 30.2233 8.95565 29.76 8.76898 29.46C8.58232 29.16 8.29898 29.01 7.91898 29.01ZM12.9009 28.3C13.5475 28.3 14.0442 28.5033 14.3909 28.91C14.7442 29.31 14.9209 29.88 14.9209 30.62C14.9209 31.4133 14.7342 32.0233 14.3609 32.45C13.9875 32.8767 13.4575 33.09 12.7709 33.09C12.1242 33.09 11.6242 32.89 11.2709 32.49C10.9242 32.0833 10.7509 31.51 10.7509 30.77C10.7509 29.9767 10.9375 29.3667 11.3109 28.94C11.6842 28.5133 12.2142 28.3 12.9009 28.3ZM12.8409 29.01C12.0809 29.01 11.7009 29.5233 11.7009 30.55C11.7009 31.1767 11.7942 31.64 11.9809 31.94C12.1675 32.24 12.4542 32.39 12.8409 32.39C13.2209 32.39 13.5042 32.2633 13.6909 32.01C13.8775 31.7567 13.9709 31.37 13.9709 30.85C13.9709 30.2233 13.8775 29.76 13.6909 29.46C13.5042 29.16 13.2209 29.01 12.8409 29.01ZM17.0127 30.97L17.0827 33H16.0627L16.1327 31.06L16.0727 26.06L17.0927 25.98L17.0127 30.97ZM18.1527 30.49C18.6261 31.1633 19.2227 31.94 19.9427 32.82V32.94C19.7694 32.9867 19.5827 33.02 19.3827 33.04C19.1827 33.0667 19.0594 33.0833 19.0127 33.09L18.9027 33.05C18.2161 32.1833 17.6361 31.36 17.1627 30.58V30.51L18.4727 28.83L18.7227 28.39H19.8327L18.1527 30.49ZM20.7995 31.07L20.7695 28.46L21.7695 28.37L21.7295 30.98L21.7595 33H20.7595L20.7995 31.07ZM21.2795 26.24C21.4462 26.24 21.5762 26.29 21.6695 26.39C21.7629 26.4833 21.8095 26.6167 21.8095 26.79C21.8095 26.97 21.7595 27.1133 21.6595 27.22C21.5595 27.3267 21.4229 27.38 21.2495 27.38C21.0762 27.38 20.9395 27.33 20.8395 27.23C20.7462 27.13 20.6995 26.9933 20.6995 26.82C20.6995 26.6467 20.7495 26.5067 20.8495 26.4C20.9562 26.2933 21.0995 26.24 21.2795 26.24ZM26.1195 29.97C26.1262 29.7167 26.0662 29.52 25.9395 29.38C25.8195 29.2333 25.6429 29.16 25.4095 29.16C25.0229 29.16 24.6229 29.36 24.2095 29.76L24.1995 30.98L24.2595 33H23.2395L23.2995 31.07L23.2495 28.46L24.2195 28.37L24.2095 29.04H24.2795C24.6729 28.6933 25.0829 28.4567 25.5095 28.33C26.0229 28.33 26.4095 28.4467 26.6695 28.68C26.9362 28.9133 27.0662 29.2467 27.0595 29.68L27.0295 30.98L27.0795 33H26.0495L26.1195 29.97ZM32.6844 28.88C32.4977 28.94 32.211 29.0033 31.8244 29.07L31.8044 29.11C31.931 29.3233 31.9944 29.58 31.9944 29.88C31.9944 30.3733 31.8244 30.7667 31.4844 31.06C31.1444 31.3467 30.6844 31.49 30.1044 31.49C29.891 31.49 29.6877 31.47 29.4944 31.43C29.4144 31.4967 29.3577 31.5567 29.3244 31.61C29.2977 31.6567 29.2844 31.7067 29.2844 31.76C29.2844 31.8933 29.3677 31.9867 29.5344 32.04C29.7077 32.0933 29.9777 32.1467 30.3444 32.2C30.7244 32.2467 31.041 32.3033 31.2944 32.37C31.5477 32.4367 31.7644 32.55 31.9444 32.71C32.131 32.87 32.2244 33.09 32.2244 33.37C32.2244 33.6633 32.1277 33.93 31.9344 34.17C31.741 34.41 31.4744 34.5967 31.1344 34.73C30.801 34.87 30.4277 34.94 30.0144 34.94C29.4544 34.94 29.0177 34.8167 28.7044 34.57C28.3977 34.3233 28.2444 34 28.2444 33.6C28.3444 33.44 28.4644 33.2967 28.6044 33.17C28.7444 33.0433 28.911 32.9167 29.1044 32.79V32.74C28.871 32.66 28.691 32.5567 28.5644 32.43C28.4377 32.2967 28.3744 32.12 28.3744 31.9C28.5477 31.6533 28.761 31.45 29.0144 31.29V31.24C28.7877 31.1133 28.6144 30.9433 28.4944 30.73C28.381 30.51 28.3244 30.2533 28.3244 29.96C28.3244 29.4533 28.491 29.0567 28.8244 28.77C29.1644 28.4767 29.621 28.33 30.1944 28.33C30.541 28.33 30.8477 28.3867 31.1144 28.5C31.6077 28.42 32.101 28.3033 32.5944 28.15L32.6844 28.21V28.88ZM30.1444 30.84C30.451 30.84 30.6844 30.7567 30.8444 30.59C31.011 30.4233 31.0944 30.1867 31.0944 29.88C31.0944 29.5933 31.0177 29.3733 30.8644 29.22C30.711 29.0667 30.4844 28.99 30.1844 28.99C29.871 28.99 29.631 29.07 29.4644 29.23C29.3044 29.3833 29.2244 29.61 29.2244 29.91C29.2244 30.21 29.301 30.44 29.4544 30.6C29.6144 30.76 29.8444 30.84 30.1444 30.84ZM31.3444 33.56C31.3444 33.4133 31.2877 33.3 31.1744 33.22C31.061 33.14 30.9244 33.08 30.7644 33.04C30.6044 33.0067 30.371 32.9667 30.0644 32.92C29.9177 32.9067 29.8144 32.8933 29.7544 32.88C29.541 33.0133 29.381 33.1433 29.2744 33.27C29.1677 33.3967 29.1144 33.5267 29.1144 33.66C29.1144 33.84 29.201 33.9867 29.3744 34.1C29.5544 34.22 29.8077 34.28 30.1344 34.28C30.4877 34.28 30.7777 34.2133 31.0044 34.08C31.231 33.9467 31.3444 33.7733 31.3444 33.56ZM34.7563 28.31C35.1563 28.31 35.5463 28.3867 35.9263 28.54L35.7863 29.34L35.6563 29.37C35.3096 29.1367 34.9696 29.02 34.6363 29.02C34.4363 29.02 34.2763 29.0733 34.1563 29.18C34.0429 29.2867 33.9863 29.4167 33.9863 29.57C33.9863 29.7367 34.0529 29.87 34.1863 29.97C34.3263 30.07 34.5396 30.18 34.8263 30.3C35.0863 30.4133 35.2963 30.52 35.4563 30.62C35.6229 30.72 35.7629 30.8533 35.8763 31.02C35.9963 31.1867 36.0563 31.3933 36.0563 31.64C36.0563 31.8933 35.9896 32.1333 35.8563 32.36C35.7229 32.58 35.5263 32.7567 35.2663 32.89C35.0063 33.0233 34.6929 33.09 34.3263 33.09C33.8663 33.09 33.3996 32.9867 32.9263 32.78L33.0463 31.93L33.1563 31.86C33.3496 32.0267 33.5629 32.16 33.7963 32.26C34.0296 32.3533 34.2429 32.4 34.4363 32.4C34.6496 32.4 34.8196 32.3433 34.9463 32.23C35.0796 32.11 35.1463 31.97 35.1463 31.81C35.1463 31.6433 35.0796 31.5133 34.9463 31.42C34.8129 31.32 34.6029 31.2033 34.3163 31.07C34.0563 30.9567 33.8429 30.85 33.6763 30.75C33.5096 30.65 33.3663 30.5133 33.2463 30.34C33.1329 30.1667 33.0763 29.9533 33.0763 29.7C33.0763 29.2933 33.2263 28.96 33.5263 28.7C33.8263 28.44 34.2363 28.31 34.7563 28.31Z" fill="#5C5C5C"/>
</svg>
